<svg width="75" height="75" viewBox="0 0 75 75" fill="none" xmlns="http://www.w3.org/2000/svg">
<circle cx="37.5" cy="37.5" r="37.5" fill="#00A3F2"/>
<path d="M50.5469 24.4228C50.2902 24.2004 49.9778 24.052 49.6433 23.9936C49.3087 23.9351 48.9646 23.9687 48.6477 24.0907L24.1305 33.7196C23.7543 33.8654 23.4357 34.1295 23.2228 34.4722C23.0099 34.8149 22.9142 35.2175 22.9502 35.6193C22.9862 36.0211 23.1519 36.4003 23.4223 36.6997C23.6927 36.9991 24.0531 37.2024 24.4492 37.279L30.8906 38.5673V46.5626C30.8911 46.9289 30.9997 47.287 31.2029 47.5918C31.4061 47.8966 31.6948 48.1346 32.0328 48.2759C32.2607 48.3688 32.5039 48.4183 32.75 48.422C32.9944 48.4235 33.2366 48.3761 33.4624 48.2826C33.6882 48.189 33.8931 48.0513 34.0648 47.8775L37.6906 44.2517L43.1094 49.0196C43.445 49.3206 43.8804 49.4863 44.3312 49.4845C44.5255 49.4861 44.7186 49.4547 44.9023 49.3915C45.209 49.294 45.4846 49.1175 45.7015 48.8797C45.9183 48.6419 46.0687 48.3512 46.1375 48.0368L51.1445 26.2423C51.2194 25.9133 51.2033 25.5702 51.098 25.2497C50.9927 24.9291 50.8022 24.6433 50.5469 24.4228ZM24.5555 35.4728C24.5462 35.4168 24.5571 35.3593 24.5863 35.3107C24.6155 35.262 24.6611 35.2253 24.7148 35.2071L45.2344 27.1454L31.5016 37.0665L24.768 35.7118C24.7093 35.7053 24.6551 35.6772 24.6159 35.6331C24.5766 35.5889 24.5551 35.5318 24.5555 35.4728ZM32.9359 46.7486C32.8991 46.7872 32.851 46.8131 32.7985 46.8226C32.746 46.8322 32.6918 46.8249 32.6438 46.8017C32.5971 46.7813 32.5572 46.7479 32.529 46.7056C32.5007 46.6632 32.4852 46.6135 32.4844 46.5626V39.6696L36.482 43.2025L32.9359 46.7486ZM44.5969 47.6782C44.5878 47.7243 44.5667 47.7671 44.5356 47.8024C44.5046 47.8376 44.4648 47.864 44.4203 47.8789C44.3757 47.8937 44.328 47.8965 44.2821 47.8869C44.2361 47.8773 44.1935 47.8557 44.1586 47.8243L32.9625 37.9696L49.5641 25.99L44.5969 47.6782Z" fill="white"/>
</svg>
