<svg width="75" height="75" viewBox="0 0 75 75" fill="none" xmlns="http://www.w3.org/2000/svg">
<circle cx="37.5" cy="37.5" r="37.5" fill="#25D267"/>
<path d="M47.7799 26.1618C46.4429 24.8113 44.8504 23.7405 43.0953 23.0119C41.3401 22.2833 39.4574 21.9114 37.557 21.9181C29.5945 21.9181 23.1049 28.4076 23.1049 36.3701C23.1049 38.9222 23.7758 41.4014 25.0299 43.5889L22.9883 51.0847L30.6445 49.0722C32.7591 50.2243 35.1362 50.8368 37.557 50.8368C45.5195 50.8368 52.0091 44.3472 52.0091 36.3847C52.0091 32.5201 50.507 28.8889 47.7799 26.1618ZM37.557 48.3868C35.3987 48.3868 33.2841 47.8035 31.432 46.7097L30.9945 46.4472L26.4445 47.6431L27.6549 43.2097L27.3633 42.7576C26.1642 40.8428 25.5274 38.6295 25.5258 36.3701C25.5258 29.7493 30.9216 24.3535 37.5424 24.3535C40.7508 24.3535 43.7695 25.6076 46.0299 27.8826C47.1492 28.9968 48.0362 30.3219 48.6395 31.7814C49.2428 33.2408 49.5504 34.8055 49.5445 36.3847C49.5737 43.0056 44.1779 48.3868 37.557 48.3868ZM44.1487 39.4035C43.7841 39.2285 42.0049 38.3535 41.6841 38.2222C41.3487 38.1056 41.1154 38.0472 40.8674 38.3972C40.6195 38.7618 39.9341 39.5785 39.7299 39.8118C39.5258 40.0597 39.307 40.0889 38.9424 39.8993C38.5779 39.7243 37.4112 39.3306 36.0404 38.1056C34.9612 37.1431 34.2466 35.9618 34.0279 35.5972C33.8237 35.2326 33.9987 35.0431 34.1883 34.8535C34.3487 34.6931 34.5529 34.4306 34.7279 34.2264C34.9029 34.0222 34.9758 33.8618 35.0924 33.6285C35.2091 33.3806 35.1508 33.1764 35.0633 33.0014C34.9758 32.8264 34.2466 31.0472 33.9549 30.3181C33.6633 29.6181 33.357 29.7056 33.1383 29.691H32.4383C32.1904 29.691 31.8112 29.7785 31.4758 30.1431C31.1549 30.5076 30.2216 31.3826 30.2216 33.1618C30.2216 34.941 31.5195 36.6618 31.6945 36.8951C31.8695 37.1431 34.2466 40.7889 37.8633 42.3493C38.7237 42.7285 39.3945 42.9472 39.9195 43.1076C40.7799 43.3847 41.5674 43.341 42.1945 43.2535C42.8945 43.1514 44.3383 42.3785 44.6299 41.5326C44.9362 40.6868 44.9362 39.9722 44.8341 39.8118C44.732 39.6514 44.5133 39.5785 44.1487 39.4035Z" fill="white"/>
</svg>
