<svg width="75" height="75" viewBox="0 0 75 75" fill="none" xmlns="http://www.w3.org/2000/svg">
<circle cx="37.5" cy="37.5" r="37.5" fill="#FF8C22"/>
<path d="M43.4 19.1212C43.4891 18.7954 43.7027 18.5177 43.9947 18.348C44.2867 18.1783 44.6338 18.1302 44.9609 18.2142C48.0351 19.0405 50.8381 20.6602 53.089 22.9111C55.3399 25.162 56.9597 27.965 57.7859 31.0392C57.8304 31.2012 57.8421 31.3705 57.8204 31.5372C57.7988 31.7038 57.7441 31.8645 57.6597 32.0098C57.5752 32.1551 57.4627 32.2821 57.3287 32.3835C57.1946 32.4848 57.0417 32.5585 56.8789 32.6001L56.5625 32.6423C56.2823 32.6419 56.0101 32.5484 55.7887 32.3766C55.5673 32.2048 55.4091 31.9644 55.3391 31.6931C54.6237 29.051 53.2289 26.6423 51.2933 24.7068C49.3578 22.7713 46.9491 21.3764 44.307 20.661C43.9858 20.5719 43.7118 20.3615 43.5426 20.0743C43.3734 19.7871 43.3223 19.4454 43.4 19.1212ZM42.5563 27.179C44.0547 27.5892 45.4204 28.3827 46.5189 29.4812C47.6175 30.5797 48.4109 31.9454 48.8211 33.4439C48.8912 33.7152 49.0493 33.9556 49.2707 34.1274C49.4921 34.2992 49.7643 34.3926 50.0445 34.3931L50.3609 34.3509C50.6838 34.2571 50.9581 34.0427 51.127 33.752C51.2959 33.4614 51.3464 33.1168 51.268 32.79C50.7468 30.8595 49.7284 29.0995 48.3145 27.6856C46.9006 26.2717 45.1406 25.2533 43.2102 24.7321C42.8833 24.6537 42.5387 24.7042 42.2481 24.8731C41.9574 25.042 41.743 25.3163 41.6492 25.6392C41.5658 25.9636 41.6145 26.3079 41.7845 26.5965C41.9545 26.8852 42.2321 27.0946 42.5563 27.179ZM59.4313 47.872C59.0777 50.6217 57.7352 53.1487 55.6545 54.9809C53.5739 56.8131 50.8974 57.8253 48.125 57.8282C31.6086 57.8282 18.1719 44.3915 18.1719 27.8751C18.1749 25.1027 19.187 22.4262 21.0192 20.3456C22.8514 18.265 25.3784 16.9225 28.1281 16.5689C28.7609 16.4948 29.4006 16.6273 29.9518 16.9466C30.503 17.266 30.9362 17.755 31.1867 18.3407L35.4266 28.2337C35.6189 28.6813 35.6983 29.1693 35.6579 29.6548C35.6174 30.1403 35.4583 30.6085 35.1945 31.0181L31.6719 36.3759C31.6371 36.4363 31.617 36.5041 31.6133 36.5738C31.6097 36.6434 31.6225 36.7129 31.6508 36.7767C33.2711 40.0988 35.9602 42.7804 39.2867 44.3915C39.3513 44.4205 39.4224 44.4319 39.4928 44.4245C39.5632 44.4171 39.6304 44.3911 39.6875 44.3493L44.982 40.8267C45.3876 40.5542 45.8552 40.3882 46.3418 40.3439C46.8284 40.2997 47.3183 40.3787 47.7664 40.5735L57.6594 44.8134C58.2451 45.0639 58.7341 45.4971 59.0535 46.0483C59.3728 46.5995 59.5053 47.2393 59.4313 47.872ZM56.9211 47.5556C56.9283 47.4676 56.9078 47.3796 56.8624 47.3039C56.817 47.2282 56.749 47.1687 56.668 47.1337L46.775 42.8939C46.7096 42.8687 46.6392 42.8594 46.5695 42.8667C46.4999 42.8741 46.4329 42.8978 46.3742 42.936L41.1008 46.4587C40.6738 46.7392 40.1822 46.9058 39.6727 46.9427C39.1632 46.9796 38.6528 46.8856 38.1898 46.6696C34.3529 44.8017 31.2497 41.706 29.3727 37.8736C29.1534 37.4161 29.0558 36.9099 29.089 36.4038C29.1223 35.8976 29.2853 35.4085 29.5625 34.9837L33.0641 29.6259C33.1059 29.5688 33.1318 29.5016 33.1392 29.4312C33.1466 29.3608 33.1352 29.2897 33.1063 29.2251L28.8664 19.3321C28.8341 19.258 28.7811 19.1947 28.7137 19.1498C28.6464 19.1049 28.5676 19.0804 28.4867 19.079H28.4445C26.3081 19.3598 24.3461 20.4061 22.9224 22.0237C21.4988 23.6412 20.7103 25.7203 20.7031 27.8751C20.7087 35.1461 23.5996 42.1177 28.741 47.2591C33.8824 52.4005 40.854 55.2914 48.125 55.297C50.2798 55.2898 52.3589 54.5013 53.9764 53.0777C55.594 51.6541 56.6403 49.692 56.9211 47.5556Z" fill="white"/>
</svg>
