<svg width="29" height="28" viewBox="0 0 29 28" fill="none" xmlns="http://www.w3.org/2000/svg">
<path d="M1.50512 13.8788C1.50446 16.2393 2.12604 18.544 3.30795 20.5755L1.39209 27.5164L8.55073 25.6539C10.5307 26.7235 12.7491 27.2839 15.0035 27.284H15.0094C22.4516 27.284 28.5096 21.2751 28.5128 13.8894C28.5142 10.3105 27.1108 6.94512 24.5611 4.4132C22.0118 1.88149 18.6214 0.486497 15.0089 0.484863C7.56592 0.484863 1.5082 6.49344 1.50512 13.8788Z" fill="url(#paint0_linear_1_649)"/>
<path d="M0.570548 13.8739C0.56978 16.3193 1.21363 18.7065 2.43769 20.8107L0.453125 28.0004L7.86845 26.0712C9.91162 27.1765 12.212 27.7593 14.5528 27.7602H14.5588C22.2679 27.7602 28.5436 21.5351 28.5469 13.885C28.5482 10.1775 27.0944 6.69116 24.4535 4.06853C21.8124 1.44623 18.3007 0.00103619 14.5588 -0.000488281C6.84841 -0.000488281 0.573621 6.2237 0.570548 13.8739ZM4.98654 20.4483L4.70966 20.0122C3.54574 18.1759 2.93141 16.0538 2.93229 13.8748C2.93481 7.51612 8.15016 2.34284 14.5632 2.34284C17.6689 2.34414 20.5876 3.54542 22.7828 5.72498C24.978 7.90475 26.1859 10.8023 26.1852 13.8841C26.1823 20.2428 20.9668 25.4167 14.5588 25.4167H14.5542C12.4677 25.4157 10.4214 24.8597 8.63675 23.809L8.21205 23.5591L3.81165 24.7038L4.98654 20.4483Z" fill="#E5E5E5"/>
<path d="M11.0647 7.60681C10.8029 7.02936 10.5273 7.01771 10.2783 7.00758C10.0744 6.99887 9.84131 6.99952 9.60844 6.99952C9.37535 6.99952 8.99664 7.08653 8.67652 7.43334C8.35608 7.78049 7.45312 8.61938 7.45312 10.3256C7.45312 12.0319 8.7056 13.6808 8.8802 13.9124C9.05502 14.1436 11.2981 17.757 14.8507 19.1471C17.8032 20.3024 18.404 20.0726 19.0448 20.0147C19.6857 19.957 21.1127 19.176 21.4039 18.3662C21.6952 17.5565 21.6952 16.8624 21.6079 16.7174C21.5205 16.5729 21.2874 16.4861 20.9379 16.3127C20.5883 16.1393 18.8699 15.3003 18.5496 15.1845C18.2292 15.0689 17.9962 15.0111 17.7631 15.3584C17.53 15.7051 16.8607 16.4861 16.6567 16.7174C16.4529 16.9492 16.2489 16.978 15.8995 16.8046C15.5497 16.6306 14.4241 16.2648 13.0887 15.0834C12.0496 14.1642 11.3482 13.029 11.1443 12.6818C10.9404 12.3351 11.1224 12.1471 11.2977 11.9743C11.4547 11.8189 11.6473 11.5693 11.8223 11.3669C11.9965 11.1644 12.0547 11.0199 12.1712 10.7886C12.2879 10.5571 12.2295 10.3546 12.1423 10.1811C12.0547 10.0076 11.3755 8.29249 11.0647 7.60681Z" fill="white"/>
<defs>
<linearGradient id="paint0_linear_1_649" x1="14.9524" y1="27.5164" x2="14.9524" y2="0.484863" gradientUnits="userSpaceOnUse">
<stop stop-color="#73CE00"/>
<stop offset="1" stop-color="#8FFC06"/>
</linearGradient>
</defs>
</svg>
