<svg width="109" height="27" viewBox="0 0 109 27" fill="none" xmlns="http://www.w3.org/2000/svg">
<path d="M0.988 26V0.799998H6.82V21.248H19.456V26H0.988ZM35.2527 26.432C33.2607 26.432 31.4127 26.108 29.7087 25.46C28.0287 24.812 26.5647 23.9 25.3167 22.724C24.0927 21.548 23.1327 20.168 22.4367 18.584C21.7647 17 21.4287 15.272 21.4287 13.4C21.4287 11.528 21.7647 9.8 22.4367 8.216C23.1327 6.632 24.1047 5.252 25.3527 4.076C26.6007 2.9 28.0647 1.988 29.7447 1.34C31.4247 0.691999 33.2487 0.368 35.2167 0.368C37.2087 0.368 39.0327 0.691999 40.6887 1.34C42.3687 1.988 43.8207 2.9 45.0447 4.076C46.2927 5.252 47.2647 6.632 47.9607 8.216C48.6567 9.776 49.0047 11.504 49.0047 13.4C49.0047 15.272 48.6567 17.012 47.9607 18.62C47.2647 20.204 46.2927 21.584 45.0447 22.76C43.8207 23.912 42.3687 24.812 40.6887 25.46C39.0327 26.108 37.2207 26.432 35.2527 26.432ZM35.2167 21.464C36.3447 21.464 37.3767 21.272 38.3127 20.888C39.2727 20.504 40.1127 19.952 40.8327 19.232C41.5527 18.512 42.1047 17.66 42.4887 16.676C42.8967 15.692 43.1007 14.6 43.1007 13.4C43.1007 12.2 42.8967 11.108 42.4887 10.124C42.1047 9.14 41.5527 8.288 40.8327 7.568C40.1367 6.848 39.3087 6.296 38.3487 5.912C37.3887 5.528 36.3447 5.336 35.2167 5.336C34.0887 5.336 33.0447 5.528 32.0847 5.912C31.1487 6.296 30.3207 6.848 29.6007 7.568C28.8807 8.288 28.3167 9.14 27.9087 10.124C27.5247 11.108 27.3327 12.2 27.3327 13.4C27.3327 14.576 27.5247 15.668 27.9087 16.676C28.3167 17.66 28.8687 18.512 29.5647 19.232C30.2847 19.952 31.1247 20.504 32.0847 20.888C33.0447 21.272 34.0887 21.464 35.2167 21.464ZM66.2757 26.432C64.2837 26.432 62.4477 26.12 60.7677 25.496C59.1117 24.848 57.6597 23.936 56.4117 22.76C55.1877 21.584 54.2277 20.204 53.5317 18.62C52.8597 17.036 52.5237 15.296 52.5237 13.4C52.5237 11.504 52.8597 9.764 53.5317 8.18C54.2277 6.596 55.1997 5.216 56.4477 4.04C57.6957 2.864 59.1597 1.964 60.8397 1.34C62.5197 0.691999 64.3677 0.368 66.3837 0.368C68.6157 0.368 70.6197 0.739999 72.3957 1.484C74.1957 2.228 75.7077 3.308 76.9317 4.724L73.1877 8.18C72.2757 7.22 71.2797 6.512 70.1997 6.056C69.1197 5.576 67.9437 5.336 66.6717 5.336C65.4477 5.336 64.3317 5.528 63.3237 5.912C62.3157 6.296 61.4397 6.848 60.6957 7.568C59.9757 8.288 59.4117 9.14 59.0037 10.124C58.6197 11.108 58.4277 12.2 58.4277 13.4C58.4277 14.576 58.6197 15.656 59.0037 16.64C59.4117 17.624 59.9757 18.488 60.6957 19.232C61.4397 19.952 62.3037 20.504 63.2877 20.888C64.2957 21.272 65.3997 21.464 66.5997 21.464C67.7517 21.464 68.8677 21.284 69.9477 20.924C71.0517 20.54 72.1197 19.904 73.1517 19.016L76.4637 23.228C75.0957 24.26 73.4997 25.052 71.6757 25.604C69.8757 26.156 68.0757 26.432 66.2757 26.432ZM71.1357 22.472V13.004H76.4637V23.228L71.1357 22.472ZM94.8411 26.432C92.8491 26.432 91.0011 26.108 89.2971 25.46C87.6171 24.812 86.1531 23.9 84.9051 22.724C83.6811 21.548 82.7211 20.168 82.0251 18.584C81.3531 17 81.0171 15.272 81.0171 13.4C81.0171 11.528 81.3531 9.8 82.0251 8.216C82.7211 6.632 83.6931 5.252 84.9411 4.076C86.1891 2.9 87.6531 1.988 89.3331 1.34C91.0131 0.691999 92.8371 0.368 94.8051 0.368C96.7971 0.368 98.6211 0.691999 100.277 1.34C101.957 1.988 103.409 2.9 104.633 4.076C105.881 5.252 106.853 6.632 107.549 8.216C108.245 9.776 108.593 11.504 108.593 13.4C108.593 15.272 108.245 17.012 107.549 18.62C106.853 20.204 105.881 21.584 104.633 22.76C103.409 23.912 101.957 24.812 100.277 25.46C98.6211 26.108 96.8091 26.432 94.8411 26.432ZM94.8051 21.464C95.9331 21.464 96.9651 21.272 97.9011 20.888C98.8611 20.504 99.7011 19.952 100.421 19.232C101.141 18.512 101.693 17.66 102.077 16.676C102.485 15.692 102.689 14.6 102.689 13.4C102.689 12.2 102.485 11.108 102.077 10.124C101.693 9.14 101.141 8.288 100.421 7.568C99.7251 6.848 98.8971 6.296 97.9371 5.912C96.9771 5.528 95.9331 5.336 94.8051 5.336C93.6771 5.336 92.6331 5.528 91.6731 5.912C90.7371 6.296 89.9091 6.848 89.1891 7.568C88.4691 8.288 87.9051 9.14 87.4971 10.124C87.1131 11.108 86.9211 12.2 86.9211 13.4C86.9211 14.576 87.1131 15.668 87.4971 16.676C87.9051 17.66 88.4571 18.512 89.1531 19.232C89.8731 19.952 90.7131 20.504 91.6731 20.888C92.6331 21.272 93.6771 21.464 94.8051 21.464Z" fill="#AAFF3F"/>
</svg>
